<?xml version="1.0" standalone="no"?>
<!DOCTYPE svg PUBLIC "-//W3C//DTD SVG 20010904//EN"
 "http://www.w3.org/TR/2001/REC-SVG-20010904/DTD/svg10.dtd">
<svg version="1.0" xmlns="http://www.w3.org/2000/svg"
 width="900.000000pt" height="582.000000pt" viewBox="0 0 900.000000 582.000000"
 preserveAspectRatio="xMidYMid meet">

<g transform="translate(0.000000,582.000000) scale(0.100000,-0.100000)"
fill="#000000" stroke="none">
<path d="M5000 5353 c-46 -18 -66 -65 -105 -243 -94 -433 -127 -580 -140 -635
-8 -33 -30 -134 -50 -225 -78 -358 -166 -757 -175 -795 -53 -212 -157 -726
-153 -751 3 -19 20 -46 40 -65 l34 -34 1859 0 1860 0 35 35 c34 34 36 40 114
395 164 742 439 1987 473 2141 15 72 4 116 -38 153 l-35 31 -1852 -1 c-1019 0
-1859 -3 -1867 -6z m1069 -268 c230 -51 294 -169 245 -450 -19 -108 -105 -458
-132 -536 -55 -157 -121 -240 -236 -297 -88 -44 -173 -61 -335 -67 -73 -3
-137 -8 -141 -10 -4 -3 -17 -44 -29 -92 -41 -174 -101 -422 -145 -606 -25
-103 -46 -194 -46 -202 0 -13 -39 -15 -275 -15 -156 0 -275 4 -275 9 0 5 22
101 49 212 63 258 114 469 152 629 17 69 59 244 94 390 35 146 77 321 94 390
16 69 51 211 76 315 25 105 50 210 56 235 5 25 15 62 20 84 l10 39 372 -6
c295 -4 387 -9 446 -22z m1071 16 c0 -4 -11 -53 -24 -107 -14 -54 -43 -175
-66 -269 -22 -93 -65 -271 -95 -395 -30 -124 -75 -310 -100 -415 -26 -104 -93
-386 -151 -625 -57 -239 -106 -445 -109 -457 l-5 -23 -276 0 c-258 0 -275 1
-270 18 3 9 35 139 70 287 36 149 92 383 126 520 53 222 109 454 266 1105 24
102 54 227 66 278 l21 92 274 0 c150 0 273 -4 273 -9z m1330 2 c0 -5 -24 -107
-54 -228 l-53 -220 -165 -3 -164 -2 -28 -118 c-15 -64 -50 -209 -77 -322 -28
-113 -61 -252 -75 -310 -14 -58 -57 -235 -95 -395 -39 -159 -88 -366 -110
-460 -22 -93 -45 -185 -51 -202 l-10 -33 -270 0 -271 0 6 33 c4 17 17 77 30
132 38 158 142 586 212 875 35 146 87 362 115 480 29 118 58 239 65 268 l13
52 -165 0 c-162 0 -164 0 -158 21 7 21 62 245 91 372 l16 67 599 0 c329 0 599
-3 599 -7z"/>
<path d="M5696 4689 c-3 -13 -24 -100 -47 -194 -22 -93 -51 -214 -64 -267
l-23 -98 50 0 c105 0 138 48 198 290 61 247 54 279 -55 288 -50 4 -54 3 -59
-19z"/>
<path d="M1120 5146 c-168 -30 -340 -122 -445 -239 -133 -146 -166 -237 -329
-915 -133 -551 -157 -675 -157 -822 -1 -137 22 -202 95 -275 102 -102 235
-140 461 -132 117 4 153 9 220 31 98 33 185 81 267 147 155 124 226 264 318
629 17 69 34 133 36 143 5 16 -13 17 -273 17 l-278 0 -56 -223 c-31 -122 -66
-246 -79 -275 -32 -75 -95 -103 -148 -66 -25 18 -29 61 -11 146 36 172 311
1293 330 1342 30 81 56 106 111 106 96 0 96 -19 -3 -427 -27 -112 -49 -210
-49 -218 0 -13 39 -15 275 -15 l275 0 6 28 c3 15 19 79 34 142 55 223 74 339
74 465 1 112 -1 124 -27 178 -54 110 -155 186 -292 222 -84 22 -263 27 -355
11z"/>
<path d="M2250 5053 c-12 -32 -134 -366 -270 -743 -137 -377 -314 -865 -394
-1085 -80 -220 -146 -405 -146 -412 0 -9 68 -12 285 -13 l284 -1 14 48 c8 27
38 121 67 211 l53 162 93 0 c83 0 94 -2 94 -17 -1 -10 -16 -102 -34 -205 -27
-155 -30 -188 -18 -193 7 -3 134 -5 282 -5 l268 0 6 38 c3 20 15 125 26 232
11 107 62 606 115 1108 52 502 95 917 95 923 0 5 -156 9 -399 9 l-400 0 -21
-57z m276 -705 c-24 -143 -67 -428 -97 -630 l-12 -88 -89 0 -90 0 7 33 c16 72
298 864 303 849 2 -6 -8 -79 -22 -164z"/>
<path d="M3446 4994 c-15 -65 -109 -454 -207 -864 -217 -897 -319 -1322 -319
-1327 0 -2 125 -2 277 -1 l278 3 51 210 c28 116 85 348 125 518 l74 307 28 0
c15 0 44 -7 64 -15 l36 -15 -5 -78 c-3 -49 -42 -227 -107 -495 -55 -230 -101
-423 -101 -428 0 -6 100 -8 257 -7 l258 3 72 300 c157 650 161 676 106 778
-24 45 -37 57 -101 89 -40 21 -64 38 -54 38 38 0 144 38 185 67 83 57 154 215
206 453 53 249 33 388 -71 487 -75 72 -159 84 -638 90 l-386 5 -28 -118z m580
-300 c43 -21 50 -55 29 -154 -44 -213 -78 -294 -130 -316 -36 -15 -105 -19
-105 -6 -1 4 25 116 57 250 l57 242 29 0 c16 0 44 -7 63 -16z"/>
<path d="M2245 2210 c-119 -16 -252 -85 -329 -170 -72 -81 -100 -163 -200
-608 -108 -477 -111 -511 -62 -618 78 -170 347 -203 499 -61 40 38 44 36 49
-23 l3 -35 122 -3 122 -3 10 38 c5 21 35 151 66 288 31 138 67 296 81 353 13
57 24 110 24 118 0 12 -35 14 -227 12 l-228 -3 -22 -95 c-31 -134 -31 -140 12
-140 19 0 35 -2 35 -5 0 -3 -14 -62 -31 -132 -35 -142 -58 -190 -96 -199 -42
-11 -58 7 -57 62 2 40 159 759 194 885 15 55 47 91 78 87 45 -5 48 -26 23
-150 -13 -62 -26 -128 -28 -145 l-5 -33 195 0 195 0 21 113 c29 156 28 239 -5
305 -42 85 -121 136 -243 158 -84 15 -108 15 -196 4z"/>
<path d="M6195 2210 c-117 -18 -227 -74 -306 -157 -57 -59 -90 -122 -123 -239
-43 -149 -176 -754 -183 -830 -8 -99 16 -173 75 -232 64 -65 119 -86 222 -86
101 0 154 20 223 83 43 40 45 41 51 19 3 -13 6 -35 6 -50 l0 -28 125 0 c121 0
125 1 130 22 35 149 175 774 175 780 0 5 -102 7 -227 6 l-227 -3 -27 -110
c-28 -117 -27 -125 22 -125 l27 0 -19 -87 c-47 -213 -71 -257 -132 -251 l-32
3 1 60 c2 58 152 744 194 887 21 68 38 88 78 88 45 0 47 -22 19 -165 -15 -74
-30 -141 -33 -150 -6 -14 17 -15 192 -13 l199 3 17 80 c23 106 32 212 24 268
-13 87 -93 170 -198 207 -65 22 -192 32 -273 20z"/>
<path d="M3293 2182 l-251 -2 -10 -28 c-5 -15 -125 -347 -266 -739 -141 -391
-256 -714 -256 -718 0 -3 91 -4 202 -3 l203 3 40 132 40 133 68 0 68 0 -6 -32
c-9 -56 -35 -228 -35 -233 0 -3 90 -5 199 -5 l200 0 5 53 c4 28 20 232 37 452
17 220 41 531 53 690 13 160 22 292 20 294 -5 6 -46 6 -311 3z m-37 -389 c-3
-10 -19 -121 -36 -248 -16 -126 -32 -249 -36 -272 l-5 -43 -60 0 c-68 0 -68 0
-40 83 11 32 17 57 14 57 -3 0 -1 6 4 13 5 6 43 105 83 220 40 114 75 207 77
207 2 0 2 -8 -1 -17z"/>
<path d="M3884 2165 c-2 -11 -76 -337 -164 -725 -88 -388 -162 -715 -165 -728
l-5 -22 196 2 197 3 75 333 75 332 31 0 c78 -1 77 -18 -3 -372 -34 -147 -61
-275 -61 -283 0 -13 26 -15 179 -15 l179 0 7 27 c25 100 115 518 121 560 10
76 -20 133 -87 167 l-50 24 55 16 c97 29 145 89 185 236 56 201 49 314 -23
386 -67 67 -48 65 -619 77 -111 2 -118 1 -123 -18z m419 -265 c17 -24 8 -96
-24 -203 -18 -61 -24 -70 -54 -83 -33 -13 -75 -19 -75 -10 0 3 16 74 35 157
19 84 35 154 35 156 0 2 15 3 34 3 24 0 39 -7 49 -20z"/>
<path d="M5010 2175 c-4 -5 -57 -149 -118 -320 -61 -170 -179 -498 -261 -728
-83 -230 -151 -423 -151 -428 0 -5 85 -9 200 -9 l200 0 42 135 42 135 67 0 66
0 -18 -117 c-10 -65 -18 -126 -19 -135 0 -17 16 -18 200 -18 162 0 200 3 200
14 0 7 25 329 55 715 30 386 55 716 55 734 l0 32 -276 0 c-172 0 -279 -4 -284
-10z m186 -566 c-13 -96 -29 -220 -36 -276 l-12 -103 -64 0 -63 0 15 50 c8 27
42 127 75 222 34 95 70 199 81 231 11 32 22 56 24 54 2 -2 -7 -82 -20 -178z"/>
<path d="M6851 2000 c-24 -102 -60 -261 -81 -355 -137 -599 -210 -928 -210
-941 0 -12 49 -14 335 -14 l335 0 5 23 c22 97 56 246 60 265 l5 22 -140 0
c-105 0 -140 3 -140 13 0 6 15 77 34 157 l33 145 121 3 c104 2 122 5 126 20
10 34 56 245 56 258 0 11 -24 14 -115 14 -85 0 -115 3 -115 13 0 6 12 67 27
135 l28 122 130 0 131 0 29 138 c17 75 30 143 30 150 0 11 -62 14 -321 15
l-321 2 -42 -185z"/>
</g>
</svg>
